<svg width="20" height="20" viewBox="0 0 20 20" fill="none" xmlns="http://www.w3.org/2000/svg">
<path d="M4.45313 14.2969C4.7147 14.5594 4.89263 14.8935 4.96445 15.257C5.03627 15.6205 4.99876 15.9972 4.85665 16.3394C4.71455 16.6817 4.47422 16.9741 4.16602 17.1799C3.85782 17.3856 3.49556 17.4954 3.125 17.4954C2.75444 17.4954 2.39218 17.3856 2.08398 17.1799C1.77578 16.9741 1.53546 16.6817 1.39335 16.3394C1.25124 15.9972 1.21373 15.6205 1.28555 15.257C1.35737 14.8935 1.5353 14.5594 1.79688 14.2969C1.97107 14.1221 2.17806 13.9834 2.40597 13.8887C2.63388 13.7941 2.87822 13.7454 3.125 13.7454C3.37178 13.7454 3.61613 13.7941 3.84404 13.8887C4.07195 13.9834 4.27893 14.1221 4.45313 14.2969ZM6.17188 6.17188C5.9103 6.43436 5.73237 6.76846 5.66055 7.132C5.58873 7.49553 5.62624 7.8722 5.76835 8.21443C5.91046 8.55666 6.15078 8.84911 6.45898 9.05485C6.76719 9.26059 7.12944 9.3704 7.5 9.3704C7.87056 9.3704 8.23282 9.26059 8.54102 9.05485C8.84922 8.84911 9.08955 8.55666 9.23165 8.21443C9.37376 7.8722 9.41127 7.49553 9.33945 7.132C9.26763 6.76846 9.0897 6.43436 8.82813 6.17188C8.65393 5.99708 8.44695 5.85838 8.21904 5.76375C7.99113 5.66911 7.74678 5.6204 7.5 5.6204C7.25322 5.6204 7.00888 5.66911 6.78097 5.76375C6.55306 5.85838 6.34607 5.99708 6.17188 6.17188ZM11.1719 11.1719C10.9103 11.4344 10.7324 11.7685 10.6606 12.132C10.5887 12.4955 10.6262 12.8722 10.7684 13.2144C10.9105 13.5567 11.1508 13.8491 11.459 14.0549C11.7672 14.2606 12.1294 14.3704 12.5 14.3704C12.8706 14.3704 13.2328 14.2606 13.541 14.0549C13.8492 13.8491 14.0895 13.5567 14.2317 13.2144C14.3738 12.8722 14.4113 12.4955 14.3394 12.132C14.2676 11.7685 14.0897 11.4344 13.8281 11.1719C13.6539 10.9971 13.4469 10.8584 13.219 10.7637C12.9911 10.6691 12.7468 10.6204 12.5 10.6204C12.2532 10.6204 12.0089 10.6691 11.781 10.7637C11.5531 10.8584 11.3461 10.9971 11.1719 11.1719ZM18.2031 3.04688C17.9406 2.7853 17.6065 2.60737 17.243 2.53555C16.8795 2.46373 16.5028 2.50124 16.1606 2.64335C15.8183 2.78546 15.5259 3.02578 15.3201 3.33398C15.1144 3.64218 15.0046 4.00444 15.0046 4.375C15.0046 4.74556 15.1144 5.10782 15.3201 5.41602C15.5259 5.72422 15.8183 5.96455 16.1606 6.10665C16.5028 6.24876 16.8795 6.28627 17.243 6.21445C17.6065 6.14263 17.9406 5.9647 18.2031 5.70313C18.3779 5.52893 18.5166 5.32194 18.6113 5.09404C18.7059 4.86613 18.7546 4.62178 18.7546 4.375C18.7546 4.12822 18.7059 3.88388 18.6113 3.65597C18.5166 3.42806 18.3779 3.22107 18.2031 3.04688Z" fill="#1C1C1C" fill-opacity="0.1"/>
<path d="M18.6436 2.60621C18.4114 2.37401 18.1358 2.18981 17.8324 2.06414C17.5291 1.93846 17.2039 1.87378 16.8756 1.87378C16.5472 1.87378 16.2221 1.93846 15.9187 2.06414C15.6154 2.18981 15.3398 2.37401 15.1076 2.60621C14.8754 2.83837 14.6912 3.11399 14.5655 3.41734C14.4399 3.72069 14.3752 4.04583 14.3752 4.37418C14.3752 4.70254 14.4399 5.02767 14.5655 5.33102C14.6912 5.63437 14.8754 5.91 15.1076 6.14215C15.1303 6.16481 15.1545 6.18668 15.1779 6.20856L13.0975 10.0726C12.4632 9.91794 11.7936 10.016 11.2303 10.3461L9.65371 8.7695C9.96388 8.24526 10.072 7.62582 9.95772 7.02751C9.84345 6.42921 9.51469 5.8932 9.03316 5.52016C8.55163 5.14712 7.95048 4.96271 7.3426 5.00158C6.73472 5.04044 6.16194 5.29989 5.73184 5.73121C5.49963 5.96337 5.31543 6.23899 5.18976 6.54234C5.06409 6.84569 4.9994 7.17083 4.9994 7.49918C4.9994 7.82754 5.06409 8.15267 5.18976 8.45602C5.31543 8.75937 5.49963 9.035 5.73184 9.26715C5.75449 9.28981 5.77793 9.31168 5.80137 9.33356L3.7209 13.1984C3.30329 13.0956 2.86623 13.1023 2.45196 13.2178C2.0377 13.3333 1.66023 13.5537 1.35606 13.8578C1.00648 14.2074 0.768436 14.6529 0.67202 15.1378C0.575603 15.6228 0.625144 16.1254 0.81438 16.5822C1.00362 17.039 1.32405 17.4294 1.73516 17.7041C2.14627 17.9787 2.6296 18.1253 3.12402 18.1253C3.61845 18.1253 4.10178 17.9787 4.51289 17.7041C4.924 17.4294 5.24443 17.039 5.43367 16.5822C5.6229 16.1254 5.67245 15.6228 5.57603 15.1378C5.47961 14.6529 5.24157 14.2074 4.89199 13.8578C4.86934 13.8351 4.84512 13.8132 4.82168 13.7914L6.90215 9.92731C7.09777 9.97522 7.29841 9.99961 7.49981 9.99996C7.94615 10.0005 8.3845 9.88155 8.76934 9.65543L10.3459 11.232C10.1085 11.6348 9.98892 12.0961 10.0006 12.5635C10.0123 13.0309 10.1548 13.4857 10.4119 13.8762C10.6691 14.2666 11.0306 14.5772 11.4553 14.7725C11.8801 14.9678 12.3512 15.0401 12.815 14.9812C13.2788 14.9222 13.7168 14.7344 14.0792 14.439C14.4416 14.1436 14.714 13.7525 14.8653 13.3102C15.0166 12.8678 15.0408 12.3918 14.9352 11.9364C14.8296 11.4809 14.5983 11.0642 14.2678 10.7336C14.2451 10.7109 14.2217 10.689 14.1982 10.6672L16.2787 6.80309C16.4738 6.85066 16.674 6.87479 16.8748 6.87496C17.3692 6.87489 17.8524 6.72825 18.2634 6.45359C18.6744 6.17893 18.9948 5.78858 19.184 5.33188C19.3733 4.87517 19.4228 4.37262 19.3265 3.88775C19.2301 3.40288 18.9922 2.95745 18.6428 2.60778L18.6436 2.60621ZM4.00762 16.5101C3.77307 16.7446 3.45499 16.8762 3.12336 16.8762C2.79173 16.8761 2.47371 16.7443 2.23926 16.5097C2.00481 16.2752 1.87314 15.9571 1.87321 15.6255C1.87329 15.2938 2.0051 14.9758 2.23965 14.7414C2.35579 14.6253 2.49365 14.5332 2.64537 14.4704C2.7971 14.4076 2.9597 14.3753 3.12391 14.3753C3.28812 14.3754 3.45071 14.4077 3.6024 14.4706C3.7541 14.5335 3.89192 14.6256 4.00801 14.7418C4.12409 14.8579 4.21617 14.9958 4.27898 15.1475C4.34178 15.2992 4.37409 15.4618 4.37405 15.626C4.37402 15.7902 4.34164 15.9528 4.27876 16.1045C4.21589 16.2562 4.12376 16.394 4.00762 16.5101ZM6.61543 8.38512C6.49933 8.26904 6.40723 8.13123 6.34439 7.97956C6.28155 7.82788 6.24921 7.66531 6.24921 7.50114C6.24921 7.33696 6.28155 7.17439 6.34439 7.02272C6.40723 6.87104 6.49933 6.73323 6.61543 6.61715C6.79026 6.44236 7.01299 6.32334 7.25546 6.27513C7.49792 6.22692 7.74924 6.2517 7.97763 6.34631C8.20602 6.44093 8.40123 6.60115 8.53857 6.8067C8.67591 7.01226 8.74921 7.25392 8.74921 7.50114C8.74921 7.74835 8.67591 7.99001 8.53857 8.19557C8.40123 8.40112 8.20602 8.56134 7.97763 8.65596C7.74924 8.75058 7.49792 8.77535 7.25546 8.72714C7.01299 8.67893 6.79026 8.55991 6.61543 8.38512ZM13.3842 13.3851C13.1497 13.6196 12.8318 13.7513 12.5002 13.7513C12.1686 13.7513 11.8507 13.6196 11.6162 13.3851C11.3818 13.1507 11.2501 12.8327 11.2501 12.5011C11.2501 12.1696 11.3818 11.8516 11.6162 11.6172C11.8507 11.3827 12.1686 11.251 12.5002 11.251C12.8318 11.251 13.1497 11.3827 13.3842 11.6172C13.6186 11.8516 13.7503 12.1696 13.7503 12.5011C13.7503 12.8327 13.6186 13.1507 13.3842 13.3851ZM17.7592 5.26012C17.5244 5.49446 17.2062 5.62595 16.8745 5.62566C16.5428 5.62537 16.2248 5.49332 15.9904 5.25856C15.7561 5.0238 15.6246 4.70556 15.6249 4.37386C15.6252 4.04215 15.7572 3.72415 15.992 3.48981C16.1081 3.37372 16.246 3.28165 16.3977 3.21884C16.5494 3.15604 16.712 3.12373 16.8763 3.12376C17.0405 3.1238 17.2031 3.15618 17.3547 3.21905C17.5064 3.28193 17.6443 3.37406 17.7604 3.4902C17.8764 3.60634 17.9685 3.7442 18.0313 3.89592C18.0941 4.04765 18.1264 4.21025 18.1264 4.37446C18.1264 4.53867 18.094 4.70126 18.0311 4.85295C17.9682 5.00465 17.8761 5.14247 17.76 5.25856L17.7592 5.26012Z" fill="#1C1C1C"/>
</svg>
