<svg width="20" height="20" viewBox="0 0 20 20" fill="none" xmlns="http://www.w3.org/2000/svg">
<path d="M2.62505 11.375C2.53983 10.9217 2.49794 10.4613 2.50008 10C2.49908 8.44887 2.97951 6.93573 3.87512 5.66933C4.77074 4.40285 6.03729 3.44566 7.50008 2.92969V8.55469L2.62505 11.375Z" fill="#1C1C1C" fill-opacity="0.1"/>
<path d="M10.625 10V2.5C10.625 2.15482 10.3452 1.875 10 1.875C9.65482 1.875 9.375 2.15482 9.375 2.5V10C9.375 10.3452 9.65482 10.625 10 10.625C10.3452 10.625 10.625 10.3452 10.625 10Z" fill="#1C1C1C"/>
<path d="M3.19567 13.2085L3.1952 13.2088C3.05167 13.2917 2.94695 13.4282 2.90408 13.5884C2.88996 13.6411 2.88281 13.6954 2.88281 13.75C2.88281 13.7566 2.88292 13.7632 2.88313 13.7698C2.8864 13.8728 2.91507 13.9734 2.96661 14.0626C3.07827 14.2559 3.28457 14.375 3.50781 14.375C3.51752 14.375 3.52723 14.3748 3.53693 14.3743C3.63671 14.3697 3.73392 14.3412 3.82042 14.2912L3.82089 14.2909L16.8048 6.7912C16.9981 6.67954 17.1172 6.47325 17.1172 6.25C17.1172 6.24029 17.117 6.23058 17.1165 6.22089C17.1119 6.1211 17.0834 6.02389 17.0334 5.93739C16.9505 5.79386 16.8139 5.68913 16.6538 5.64626C16.6011 5.63215 16.5468 5.625 16.4922 5.625C16.4856 5.625 16.479 5.6251 16.4724 5.62531C16.3694 5.62858 16.2688 5.65726 16.1796 5.7088L3.19567 13.2085Z" fill="#1C1C1C"/>
<path d="M7.29199 2.33984C7.44827 2.28472 7.62004 2.29472 7.76953 2.36621C7.91906 2.43776 8.03471 2.56536 8.08984 2.72168C8.1134 2.78846 8.125 2.85888 8.125 2.92969V8.55469C8.125 8.77766 8.0064 8.98395 7.81348 9.0957L2.93848 11.916C2.795 11.999 2.62402 12.0213 2.46387 11.9785C2.30374 11.9357 2.16698 11.831 2.08398 11.6875C2.0487 11.6264 2.02378 11.5596 2.01074 11.4902C2.00754 11.4731 1.87158 10.7414 1.875 9.99707C1.875 9.98345 1.87778 7.41195 3.36523 5.30859C3.37573 5.29379 4.86469 3.19602 7.29199 2.33984ZM6.875 3.87207C6.875 3.87207 5.38165 4.62205 4.38574 6.03027C4.38574 6.03027 3.12362 7.81441 3.125 10.0029C3.12498 10.0065 3.12419 10.1835 3.13281 10.3594L6.875 8.19434V3.87207Z" fill="#1C1C1C"/>
<path d="M6.59931 15.9755C5.00112 15.0662 4.07024 13.4805 4.07024 13.4805C3.98633 13.3375 3.84906 13.2338 3.68864 13.192C3.63725 13.1786 3.58436 13.1719 3.53125 13.1719C3.52318 13.1719 3.5151 13.172 3.50703 13.1723C3.40407 13.1763 3.3037 13.2057 3.21484 13.2579C3.02367 13.3701 2.90625 13.5752 2.90625 13.7969L2.90625 13.7987C2.90657 13.9093 2.93625 14.0179 2.99226 14.1133C4.09239 15.9873 5.98116 17.062 5.98116 17.062C7.86993 18.1366 10.043 18.1249 10.043 18.1249C12.2161 18.1132 14.0931 17.0182 14.0931 17.0182C15.9702 15.9232 17.05 14.0374 17.05 14.0374C18.1299 12.1516 18.1241 9.97854 18.1241 9.97854C18.1184 7.80546 17.0286 5.92538 17.0286 5.92538C15.9388 4.04531 14.056 2.96028 14.056 2.96028C12.1732 1.87525 10.0001 1.875 10.0001 1.875C9.96188 1.875 9.92383 1.87849 9.88634 1.88542C9.59005 1.94022 9.37503 2.19861 9.375 2.49993C9.375 2.50996 9.37524 2.51998 9.37572 2.52995C9.38316 2.68515 9.44815 2.83201 9.55801 2.94189C9.67521 3.05911 9.83417 3.12498 9.99993 3.125H10.0002C11.8388 3.12528 13.4319 4.04331 13.4319 4.04331C15.025 4.96141 15.9471 6.55225 15.9471 6.55225C16.8693 8.14308 16.8741 9.98184 16.8741 9.98184C16.879 11.8206 15.9653 13.4163 15.9653 13.4163C15.0516 15.012 13.4633 15.9385 13.4633 15.9385C11.875 16.865 10.0362 16.8749 10.0362 16.8749C8.1975 16.8848 6.59931 15.9755 6.59931 15.9755Z" fill="#1C1C1C"/>
</svg>
